<mxfile host="app.diagrams.net" modified="2023-10-13T03:14:42.736Z" agent="Mozilla/5.0 (Windows NT 10.0; Win64; x64) AppleWebKit/537.36 (KHTML, like Gecko) Chrome/118.0.0.0 Safari/537.36" version="21.6.5" etag="IJtwEHjy3Qar6cBMPbtP" type="github">
  <diagram name="หน้า-1" id="dc3fAKlX3mPGgoUtJNFk">
    <mxGraphModel>
      <root>
        <mxCell id="0" />
        <mxCell id="1" parent="0" />
      </root>
    </mxGraphModel>
  </diagram>
</mxfile>
